<?xml version="1.0" standalone="no"?>
<!DOCTYPE svg PUBLIC "-//W3C//DTD SVG 20010904//EN"
 "http://www.w3.org/TR/2001/REC-SVG-20010904/DTD/svg10.dtd">
<svg version="1.0" xmlns="http://www.w3.org/2000/svg"
 width="586.000000pt" height="478.000000pt" viewBox="0 0 586.000000 478.000000"
 preserveAspectRatio="xMidYMid meet">

<g transform="translate(0.000000,478.000000) scale(0.100000,-0.100000)"
fill="#000000" stroke="none">
<path d="M3459 4463 c-31 -64 -36 -207 -15 -408 28 -259 45 -444 60 -642 14
-192 14 -193 -10 -310 -25 -123 -75 -296 -101 -348 -23 -45 -64 -85 -88 -85
-28 0 -48 62 -74 235 -35 227 -78 323 -155 343 -102 27 -174 -94 -194 -321 -4
-48 -11 -88 -17 -90 -5 -1 -18 48 -28 108 -17 106 -36 153 -67 163 -9 3 -11
-3 -6 -24 14 -62 19 -303 7 -366 -18 -91 -73 -199 -123 -242 -107 -92 -228 -1
-257 194 -15 97 -37 163 -61 185 -20 18 -20 17 -20 -17 0 -19 9 -70 20 -113
24 -94 25 -141 5 -220 -16 -61 -70 -151 -102 -171 -63 -39 -143 -19 -171 43
-13 29 -17 67 -17 168 0 160 14 220 61 266 30 29 42 34 86 35 36 0 53 5 60 17
18 33 5 59 -35 73 -49 17 -93 1 -129 -47 -14 -19 -87 -158 -163 -309 -193
-386 -238 -460 -284 -460 -22 0 -21 -8 -51 245 -12 94 -28 197 -36 230 -32
123 -80 169 -147 141 -35 -14 -101 -82 -119 -121 -12 -28 -37 -40 -43 -22 -3
6 -18 91 -34 187 -38 218 -61 434 -61 557 0 110 -4 112 -67 35 -33 -41 -41
-58 -38 -80 3 -15 16 -97 30 -182 15 -85 32 -186 40 -225 7 -38 55 -281 106
-540 50 -258 97 -476 104 -483 10 -11 15 -11 29 3 20 21 20 23 -3 136 -47 231
-82 465 -76 510 11 80 95 133 171 108 53 -17 67 -61 140 -459 17 -92 35 -130
61 -130 9 0 40 24 67 53 58 60 105 150 198 379 34 84 66 156 72 160 7 5 13
-21 18 -80 13 -151 48 -235 119 -288 58 -43 119 -27 182 47 43 50 74 113 83
168 4 23 12 41 18 41 6 0 30 -23 54 -50 46 -53 105 -90 144 -90 85 1 175 103
218 248 7 23 18 42 25 42 6 0 21 -29 34 -64 36 -101 90 -146 77 -63 -15 98
-19 347 -6 424 14 90 50 174 87 203 29 22 75 26 90 8 14 -18 30 -91 52 -248
23 -163 49 -238 97 -279 85 -76 159 -20 224 172 13 37 29 67 36 67 6 0 15 -21
19 -47 3 -27 15 -87 26 -136 22 -92 40 -117 87 -117 20 0 23 4 18 28 -13 58
-56 356 -56 382 0 28 18 40 62 40 32 0 100 -73 174 -187 40 -61 84 -119 98
-129 25 -16 29 -16 72 1 63 24 99 57 130 121 35 72 53 160 54 264 0 124 -8
160 -34 160 -12 0 -30 -6 -40 -13 -17 -12 -17 -21 -8 -113 23 -212 -24 -334
-129 -334 -33 0 -43 6 -81 52 -56 67 -89 102 -163 166 l-59 52 17 28 c52 79
62 114 62 218 0 92 -2 105 -30 159 -27 53 -38 64 -93 92 -2 1 4 70 14 155 30
275 7 537 -59 661 -30 57 -98 127 -123 127 -7 0 -23 -21 -35 -47z m111 -76
c23 -52 50 -247 50 -363 0 -93 -25 -352 -39 -399 l-8 -30 -6 25 c-18 78 -71
530 -71 610 -1 95 23 200 45 200 6 0 19 -19 29 -43z m158 -947 c21 -41 10
-119 -32 -206 -36 -76 -61 -114 -76 -114 -35 0 3 299 42 333 27 23 49 18 66
-13z"/>
<path d="M1202 3839 c-91 -15 -207 -67 -329 -148 -65 -43 -125 -86 -132 -95
-21 -25 -37 -19 -47 16 l-10 32 -42 -42 c-35 -35 -42 -49 -42 -81 0 -32 -6
-43 -32 -64 -69 -52 -210 -202 -257 -273 -71 -105 -121 -252 -107 -310 10 -38
23 -29 55 36 22 43 28 69 25 92 -10 62 105 209 251 324 85 65 115 78 115 46 0
-9 22 -118 49 -242 150 -685 231 -1169 231 -1381 l0 -99 31 0 c17 0 39 5 50
10 25 14 49 62 49 100 0 30 -59 344 -165 875 -86 428 -155 797 -155 826 0 17
11 33 32 49 192 142 381 220 535 220 34 0 64 4 67 8 5 9 -28 87 -40 94 -20 12
-83 15 -132 7z"/>
<path d="M5032 3420 c-92 -56 -101 -209 -33 -540 24 -113 63 -284 88 -380 65
-246 69 -268 57 -287 -7 -12 -3 -37 14 -90 13 -40 27 -73 32 -73 15 0 32 59
25 89 -3 16 -8 42 -10 58 -8 61 -17 96 -66 269 -87 305 -112 432 -113 569 -1
99 2 126 18 155 22 42 65 90 81 90 6 0 19 -25 29 -55 43 -136 47 -190 55 -600
3 -220 11 -406 16 -414 4 -8 9 -50 11 -92 2 -91 12 -117 29 -75 10 23 9 38 -3
75 -12 36 -16 136 -22 471 -8 428 -16 530 -55 682 -25 98 -68 168 -103 168 -9
0 -32 -9 -50 -20z"/>
<path d="M3025 2326 c-375 -97 -733 -232 -1162 -437 -348 -166 -786 -457
-1006 -668 -105 -101 -194 -208 -182 -219 6 -6 35 22 95 93 155 183 605 499
1011 708 307 158 713 301 1159 407 96 23 192 46 212 51 27 7 42 19 53 39 18
35 20 70 3 70 -7 -1 -89 -20 -183 -44z"/>
<path d="M4856 2282 c-9 -17 -16 -51 -16 -75 0 -122 -111 -388 -199 -477 -49
-50 -80 -64 -122 -58 -36 5 -48 54 -48 205 -1 148 10 215 45 276 13 23 24 49
24 58 0 19 -37 69 -51 69 -6 0 -23 -29 -40 -65 -29 -65 -84 -117 -166 -159
-48 -24 -65 -20 -107 24 -58 61 -138 76 -180 34 -57 -56 53 -174 162 -174 l42
0 0 -89 c0 -117 -26 -202 -80 -263 -53 -61 -92 -78 -177 -78 -63 0 -72 2 -97
29 -27 28 -28 32 -23 118 2 48 10 113 17 144 12 52 12 59 -5 85 l-18 28 -10
-24 c-39 -101 -149 -305 -217 -405 -45 -66 -98 -146 -118 -177 -21 -32 -42
-58 -48 -58 -15 0 -24 57 -24 149 0 57 7 96 32 170 27 82 32 111 33 197 0 71
-4 106 -14 117 -12 15 -15 15 -32 -7 -36 -45 -51 -108 -56 -236 -6 -115 -8
-128 -36 -173 -33 -53 -52 -67 -96 -67 -60 0 -101 81 -101 198 0 26 7 94 14
152 16 117 8 140 -31 94 -21 -22 -23 -36 -23 -124 0 -220 62 -380 147 -380 29
0 93 28 93 41 0 5 6 9 14 9 15 0 26 -69 26 -173 0 -54 -5 -75 -24 -105 -67
-106 -206 -447 -247 -603 -26 -100 -23 -208 7 -259 32 -55 87 -92 142 -98 99
-9 160 55 193 203 15 70 12 389 -5 574 -11 114 -12 160 -4 175 6 12 71 111
143 221 73 110 143 219 156 242 22 40 49 57 49 32 0 -6 10 -32 21 -59 37 -86
143 -136 235 -111 86 23 148 94 190 217 23 68 27 95 27 194 l-1 115 67 33 c36
18 69 32 74 32 4 0 7 -44 7 -98 0 -142 32 -234 100 -284 104 -76 205 -11 307
197 31 63 62 115 68 115 9 0 14 -24 17 -74 2 -41 7 -78 11 -83 17 -17 26 25
20 92 -10 101 -9 231 1 301 8 59 7 62 -22 95 l-29 33 -17 -32z m-692 -242 c18
-18 -14 -31 -62 -26 -58 8 -70 16 -46 33 21 16 89 12 108 -7z m-771 -1222 c7
-172 -5 -365 -29 -448 -27 -95 -85 -150 -157 -150 -19 0 -40 6 -46 14 -45 54
9 297 123 555 69 155 87 192 95 187 4 -3 11 -74 14 -158z"/>
<path d="M5205 1873 c-13 -12 -15 -26 -11 -57 12 -75 27 -115 51 -143 25 -28
25 -28 41 -8 21 27 15 162 -10 199 -19 30 -47 33 -71 9z"/>
<path d="M2740 1735 c-398 -62 -859 -264 -1206 -527 -98 -75 -213 -173 -246
-211 -40 -45 -13 -24 75 58 213 200 557 383 959 510 157 50 373 101 468 111
64 6 92 21 111 56 9 16 5 18 -33 17 -24 -1 -81 -7 -128 -14z"/>
<path d="M4670 1444 c-317 -34 -609 -117 -817 -230 -46 -25 -93 -59 -107 -77
-32 -43 -59 -97 -52 -105 7 -6 5 -9 44 49 29 44 36 48 169 97 260 96 534 158
823 188 207 21 535 16 683 -11 54 -9 101 -14 104 -11 4 3 -1 21 -9 39 -14 29
-24 35 -69 45 -156 34 -532 42 -769 16z"/>
<path d="M2665 1224 c-263 -40 -553 -137 -802 -269 -97 -51 -313 -190 -313
-201 0 -2 26 13 58 34 113 77 348 186 542 252 198 67 531 140 637 140 19 0 39
10 58 30 l29 30 -60 -1 c-32 -1 -99 -7 -149 -15z"/>
<path d="M1395 628 l-40 -43 43 40 c39 36 47 45 39 45 -2 0 -21 -19 -42 -42z"/>
</g>
</svg>
