<?xml version="1.0" encoding="utf-8"?>
<!-- Generator: Adobe Illustrator 26.3.1, SVG Export Plug-In . SVG Version: 6.00 Build 0)  -->
<svg version="1.1" id="Layer_1" xmlns="http://www.w3.org/2000/svg" xmlns:xlink="http://www.w3.org/1999/xlink" x="0px" y="0px"
	 viewBox="0 0 29.96 29.96" style="enable-background:new 0 0 29.96 29.96;" xml:space="preserve">
<style type="text/css">
	.st0{fill:#D5D4D4;}
	.st1{fill:#595A5A;}
</style>
<g>
	<path class="st0" d="M29.96,14.68H23.3c-0.15-4.37-3.66-7.87-8.03-8.03V0h-0.6v6.65c-4.37,0.15-7.87,3.66-8.03,8.03H0v0.6h6.65
		c0.15,4.37,3.66,7.87,8.03,8.03v6.65h0.6V23.3c4.37-0.15,7.87-3.66,8.03-8.03h6.65V14.68z M22.54,14.68h-7.26V7.42
		C19.22,7.57,22.38,10.74,22.54,14.68z M14.68,7.42v7.26H7.42C7.57,10.74,10.74,7.57,14.68,7.42z M7.42,15.28h7.26v7.26
		C10.74,22.38,7.57,19.22,7.42,15.28z M15.28,22.54v-7.26h7.26C22.38,19.22,19.22,22.38,15.28,22.54z"/>
	<circle class="st1" cx="14.98" cy="14.98" r="2.3"/>
</g>
</svg>
